<svg xmlns:dc="http://purl.org/dc/elements/1.1/" xmlns:cc="http://creativecommons.org/ns#" xmlns:rdf="http://www.w3.org/1999/02/22-rdf-syntax-ns#" xmlns:svg="http://www.w3.org/2000/svg" xmlns="http://www.w3.org/2000/svg" xmlns:sodipodi="http://sodipodi.sourceforge.net/DTD/sodipodi-0.dtd" xmlns:inkscape="http://www.inkscape.org/namespaces/inkscape" version="1.1" x="0px" y="0px" viewBox="0 0 100 100"><g transform="translate(0,-952.36218)"><path style="text-indent:0;text-transform:none;direction:ltr;block-progression:tb;baseline-shift:baseline;color:#000000;enable-background:accumulate;" d="m 29,956.36215 c -3.28942,0 -6,2.7106 -6,6 l 0,80.00005 c 0,3.2894 2.71058,6 6,6 l 42,0 c 3.28942,0 6,-2.7106 6,-6 l 0,-80.00005 c 0,-3.2894 -2.71058,-6 -6,-6 z m 0,4 42,0 c 1.1426,0 2,0.8574 2,2 l 0,4 -46,0 0,-4 c 0,-1.1426 0.8574,-2 2,-2 z m -2,9.99996 46,0 0,60.00009 -46,0 z m 22.9375,11 c -0.32947,0.016 -0.65464,0.1133 -0.9375,0.2812 l -14,8 c -0.60453,0.3479 -0.99947,1.0267 -1,1.7188 l 0,16.00009 c 5.3e-4,0.6921 0.39547,1.3709 1,1.7188 l 14,8 c 0.31882,0.1884 0.6912,0.287 1.0625,0.2812 0.32947,-0.016 0.65464,-0.1133 0.9375,-0.2812 l 14,-8 c 0.60453,-0.3479 0.99947,-1.0267 1,-1.7188 l 0,-16.00009 c -5.3e-4,-0.6921 -0.39547,-1.3709 -1,-1.7188 l -14,-8 c -0.31882,-0.1884 -0.6912,-0.287 -1.0625,-0.2812 z m 0.0625,4.3125 9.96875,5.6875 -9.96875,5.6875 -9.96875,-5.6875 z m -12,9.125 10,5.71869 0,11.4064 -10,-5.7187 z m 24,0 0,11.40639 -10,5.7187 0,-11.4064 z m -35,39.56259 46,0 0,8 c 0,1.1426 -0.8574,2 -2,2 l -42,0 c -1.1426,0 -2,-0.8574 -2,-2 z m 23,2 c -1.6568,0 -3,1.3431 -3,3 0,1.6568 1.3432,3 3,3 1.6569,0 3,-1.3432 3,-3 0,-1.6569 -1.3431,-3 -3,-3 z" fill="#000000" fill-opacity="1" stroke="none" marker="none" visibility="visible" display="inline" overflow="visible"/></g></svg>