<svg xmlns="http://www.w3.org/2000/svg" xmlns:xlink="http://www.w3.org/1999/xlink" version="1.1" x="0px" y="0px" viewBox="0 0 74.699 105.363" enable-background="new 0 0 74.699 105.363" xml:space="preserve"><g><path d="M66.938,31.03H41.951V14.214c1.877-1.408,3.115-3.629,3.115-6.148c0-4.254-3.457-7.707-7.71-7.707   c-4.254,0-7.707,3.453-7.707,7.707c0,2.52,1.235,4.74,3.107,6.148V31.03h-25c-4.081,0-7.396,3.312-7.396,7.396v59.176   c0,4.09,3.315,7.4,7.396,7.4h59.182c4.09,0,7.4-3.312,7.4-7.4V38.427C74.338,34.341,71.027,31.03,66.938,31.03z M65.141,95.815   H9.558V40.229h55.583V95.815z"></path><path d="M26.276,61.519c2.55,0,4.622-2.066,4.622-4.616c0-2.555-2.072-4.622-4.622-4.622c-2.559,0-4.625,2.067-4.625,4.622   C21.651,59.452,23.718,61.519,26.276,61.519z"></path><path d="M48.426,61.519c2.549,0,4.621-2.066,4.621-4.616c0-2.555-2.072-4.622-4.621-4.622c-2.559,0-4.626,2.067-4.626,4.622   C43.8,59.452,45.868,61.519,48.426,61.519z"></path><path d="M48.426,78.215h-22.15c-2.541,0-4.594,2.062-4.594,4.604c0,2.532,2.054,4.586,4.594,4.586h22.15   c2.541,0,4.604-2.054,4.604-4.586C53.029,80.278,50.967,78.215,48.426,78.215z"></path></g></svg>