<svg xmlns="http://www.w3.org/2000/svg" xmlns:xlink="http://www.w3.org/1999/xlink" version="1.1" x="0px" y="0px" viewBox="0 0 144.083 144" enable-background="new 0 0 144.083 144" xml:space="preserve"><path d="M72.041,74.773c-1.982,0-3.656-1.319-3.656-2.881h-6c0,4.896,4.331,8.881,9.656,8.881c5.325,0,9.659-3.984,9.659-8.881h-6  C75.7,73.454,74.024,74.773,72.041,74.773z"></path><path d="M74.386,54.502h-4.688v-6.183H48.153v17.999h21.545v-5.816h4.688v5.816h21.545V48.319H74.386V54.502z M63.698,60.318h-9.545  v-5.999h9.545C63.698,54.319,63.698,60.318,63.698,60.318z M80.386,54.319h9.545v5.999h-9.545V54.319z"></path><rect x="68.041" y="123.984" width="8.002" height="6"></rect><path d="M110.375,127.714V113.47c0-12.286-13.805-21.917-24.213-26.079c5.74-2.815,10.543-7.334,13.945-13.072h9.154  c5.104,0,9.254-4.15,9.254-9.252v-12.16c0.001-5.104-4.15-9.254-9.253-9.254h-4.526c-3.574-17.367-16.873-30.305-32.695-30.305  s-29.12,12.938-32.695,30.305H34.82c-5.103,0-9.253,4.151-9.253,9.253v12.16c0,5.102,4.15,9.253,9.253,9.253h9.155  c3.402,5.736,8.205,10.256,13.945,13.07c-10.408,4.163-24.213,13.793-24.213,26.08v14.245h11.547v2.938h6v-17.368  c0-0.845,0.687-1.532,1.531-1.532h38.514c0.844,0,1.529,0.688,1.529,1.532v17.368h6v-2.938H110.375z M38.509,68.318h-3.69  c-1.794,0-3.253-1.459-3.253-3.253v-12.16c0-1.794,1.459-3.253,3.253-3.253h3.69v0.204c-0.069,1.037-0.115,2.082-0.115,3.14  c0,1.063,0.045,2.109,0.115,3.144V68.318z M79.808,92.866c0,4.28-3.483,7.765-7.768,7.765c-4.282,0-7.766-3.482-7.766-7.765v-3.173  c2.479,0.607,5.074,0.938,7.767,0.938s5.288-0.329,7.767-0.938V92.866z M72.042,84.631c-14.883,0-26.304-12.128-27.532-28.663V50.14  c0.024-0.344,0.043-0.69,0.075-1.032c6.495-1.127,11.208-4.773,13.723-10.622c4.085,2.573,9.031,3,13.567,3  c4.372,0,9.555-0.438,13.807-3.212c2.47,5.979,7.215,9.699,13.816,10.835c0.032,0.341,0.051,0.688,0.076,1.031v5.828  C98.345,72.503,86.924,84.631,72.042,84.631z M112.517,65.065c0,1.793-1.46,3.253-3.254,3.253h-3.688V56.14  c0.068-1.035,0.114-2.081,0.114-3.144c0-1.058-0.046-2.103-0.114-3.14v-0.204h3.688c1.794,0,3.254,1.459,3.254,3.253V65.065z"></path></svg>