<svg xmlns="http://www.w3.org/2000/svg" data-name="Layer 1" viewBox="0 0 100 100" x="0px" y="0px"><title>10</title><g data-name="Group"><path data-name="Compound Path" d="M82.69,13.69H65.29l-4.56-3.13A3,3,0,0,0,59,10H46a3,3,0,0,0-3,3V24H32.77a9.51,9.51,0,0,0-6-6V6.46h-6V18a9.47,9.47,0,0,0,0,18V62a9.47,9.47,0,0,0,0,18V93.54h6V80a9.51,9.51,0,0,0,6-6H43V85a3,3,0,0,0,3,3H82.69a3,3,0,0,0,3-3V60.69a3,3,0,0,0-3-3H65.29l-4.56-3.13A3,3,0,0,0,59,54H46a3,3,0,0,0-3,3V68H32.77a9.51,9.51,0,0,0-6-6V36a9.51,9.51,0,0,0,6-6H43V41a3,3,0,0,0,3,3H82.69a3,3,0,0,0,3-3V16.69A3,3,0,0,0,82.69,13.69ZM27.26,71a3.47,3.47,0,1,1-3.48-3.47A3.48,3.48,0,0,1,27.26,71ZM23.79,30.48A3.48,3.48,0,1,1,27.26,27,3.48,3.48,0,0,1,23.79,30.48Z"></path></g></svg>