<svg xmlns="http://www.w3.org/2000/svg" xmlns:xlink="http://www.w3.org/1999/xlink" version="1.1" x="0px" y="0px" viewBox="0 0 500 500" enable-background="new 0 0 500 500" xml:space="preserve"><g><g><rect x="438.5" y="437.5" fill="#000000" width="25" height="25"></rect></g><g><path fill="#000000" d="M413.5,462.5h-25v-25h25V462.5z M363.5,462.5h-25v-25h25V462.5z M313.5,462.5h-25v-25h25V462.5z     M263.5,462.5h-25v-25h25V462.5z M213.5,462.5h-25v-25h25V462.5z M163.5,462.5h-25v-25h25V462.5z M113.5,462.5h-25v-25h25V462.5z"></path></g><g><rect x="38.5" y="437.5" fill="#000000" width="25" height="25"></rect></g><g><path fill="#000000" d="M63.5,412.5h-25v-25h25V412.5z M63.5,362.5h-25v-25h25V362.5z M63.5,312.5h-25v-25h25V312.5z M63.5,262.5    h-25v-25h25V262.5z M63.5,212.5h-25v-25h25V212.5z M63.5,162.5h-25v-25h25V162.5z M63.5,112.5h-25v-25h25V112.5z"></path></g><g><rect x="38.5" y="37.5" fill="#000000" width="25" height="25"></rect></g><g><path fill="#000000" d="M413.5,62.5h-25v-25h25V62.5z M363.5,62.5h-25v-25h25V62.5z M313.5,62.5h-25v-25h25V62.5z M263.5,62.5h-25    v-25h25V62.5z M213.5,62.5h-25v-25h25V62.5z M163.5,62.5h-25v-25h25V62.5z M113.5,62.5h-25v-25h25V62.5z"></path></g><g><rect x="438.5" y="37.5" fill="#000000" width="25" height="25"></rect></g><g><path fill="#000000" d="M463.5,412.5h-25v-25h25V412.5z M463.5,362.5h-25v-25h25V362.5z M463.5,312.5h-25v-25h25V312.5z     M463.5,262.5h-25v-25h25V262.5z M463.5,212.5h-25v-25h25V212.5z M463.5,162.5h-25v-25h25V162.5z M463.5,112.5h-25v-25h25V112.5z"></path></g></g><g><path fill="#000000" d="M411,162.5H91V87h320V162.5z M116,137.5h270V112H116V137.5z"></path></g><g><path fill="#000000" d="M411,262.5H91V187h320V262.5z M116,237.5h270V212H116V237.5z"></path></g><rect x="91" y="287" fill="#000000" width="160" height="61.585"></rect></svg>