<svg xmlns="http://www.w3.org/2000/svg" xmlns:xlink="http://www.w3.org/1999/xlink" version="1.1" x="0px" y="0px" viewBox="0 0 100 100" enable-background="new 0 0 100 100" xml:space="preserve"><path d="M81.71,64.27c2.37-2.29,3.79-5.39,3.79-8.7c0-5.89-4.58-10.86-10.86-12.41c0,0,2.86-4.47,2.86-6.96  c0-5.37-4.57-9.82-10.54-10.63c0.6-1.34,0.93-2.8,0.93-4.33c0-3.1-1.34-5.91-3.51-7.95C62.22,11.26,59.22,10,55.92,10  c1.04,8.77-12.92,6.73-10.8,15.44H45c-3.45,0-6.58,1.21-8.84,3.15c-2.26,1.96-3.66,4.64-3.66,7.61c0,2.49,0.99,4.79,2.64,6.61v0.01  c-4.42,0-8.06,1.75-10.24,3.62c-2.72,2.34-4.4,5.57-4.4,9.13c0,3.31,1.44,6.32,3.82,8.61H20c-4.14,0-7.89,1.45-10.6,3.78  C6.68,70.3,5,73.53,5,77.09C5,84.22,11.72,90,20,90h60c4.14,0,7.9-1.44,10.61-3.77c2.71-2.35,4.39-5.57,4.39-9.14  C95,70.47,89.2,65,81.71,64.27z M61.95,41.83c2.53,0,4.59,2.06,4.59,4.6c0,2.53-2.06,4.59-4.59,4.59c-2.53,0-4.6-2.06-4.6-4.59  C57.35,43.89,59.42,41.83,61.95,41.83z M46.62,41.83c2.54,0,4.6,2.06,4.6,4.6c0,2.53-2.06,4.59-4.6,4.59  c-2.53,0-4.59-2.06-4.59-4.59C42.03,43.89,44.09,41.83,46.62,41.83z M73.01,67.28c-6.58,3.8-13.11,5.06-18.9,5.06  c-11.22,0-19.65-4.76-20.18-5.06c-1.19-0.69-1.6-2.22-0.91-3.42c0.69-1.19,2.21-1.6,3.41-0.91c0.23,0.13,17.34,9.67,34.07,0  c1.2-0.69,2.73-0.28,3.42,0.91C74.61,65.06,74.2,66.59,73.01,67.28z"></path></svg>