<svg xmlns="http://www.w3.org/2000/svg" xmlns:xlink="http://www.w3.org/1999/xlink" version="1.1" x="0px" y="0px" viewBox="0 0 28 32" style="enable-background:new 0 0 28 32;" xml:space="preserve"><g><g><path d="M23,15H1c-0.55,0-1,0.45-1,1v10c0,0.55,0.45,1,1,1h22c0.551,0,1-0.45,1-1V16C24,15.45,23.551,15,23,15z M11.166,22.105    c0,1.255-0.6,2.015-1.982,2.015c-0.68,0-1.248-0.185-1.743-0.823c-0.408-0.488,0.359-1.191,0.775-0.68    c0.336,0.416,0.695,0.512,1.047,0.495c0.448-0.016,0.84-0.216,0.848-1.007v-3.158c0-0.672,1.056-0.672,1.056,0V22.105z     M12.512,23.6c-0.264-0.215-0.256-0.566-0.112-0.783c0.208-0.207,0.439-0.279,0.712-0.056c0.655,0.448,2.343,0.784,2.462-0.353    c-0.104-1.183-3.43-0.471-3.182-2.742c0.184-1.551,2.526-1.83,3.629-0.982c0.545,0.439-0.031,1.135-0.512,0.783    c-0.591-0.376-1.934-0.552-2.102,0.279c-0.216,1.312,3.262,0.561,3.206,2.687C16.559,24.464,13.616,24.512,12.512,23.6z"/><path d="M27,7.586L20.414,1C19.836,0.42,18.82,0,18,0H7C5.346,0,4,1.346,4,3v10c0,0.553,0.447,1,1,1s1-0.447,1-1V3    c0-0.551,0.448-1,1-1h9c1.105,0,2,0.896,2,2v3.75C18,8.988,19.014,10,20.25,10H24c1.105,0,2,0.896,2,2v17c0,0.551-0.447,1-1,1H7    c-0.552,0-1-0.449-1-1c0-0.553-0.447-1-1-1s-1,0.447-1,1c0,1.654,1.346,3,3,3h18c1.654,0,3-1.346,3-3V10    C28,9.181,27.58,8.165,27,7.586z"/></g></g></svg>