<?xml version="1.0" encoding="utf-8"?>
<!-- Generator: Adobe Illustrator 16.0.0, SVG Export Plug-In . SVG Version: 6.00 Build 0)  -->
<!DOCTYPE svg PUBLIC "-//W3C//DTD SVG 1.1//EN" "http://www.w3.org/Graphics/SVG/1.1/DTD/svg11.dtd">
<svg version="1.1" xmlns="http://www.w3.org/2000/svg" xmlns:xlink="http://www.w3.org/1999/xlink" x="0px" y="0px"
	 viewBox="0 0 100 100" style="enable-background:new 0 0 100 100;" xml:space="preserve">
<path d="M84.615,74H82v-3h2.615C88.297,71,91,67.664,91,63.846V26.758C91,23.015,88.359,20,84.615,20H15.632
	C11.814,20,9,23.077,9,26.758v37.087C9,67.599,11.879,71,15.632,71H18v3h-2.368C9.869,74,5,69.609,5,63.846V26.758
	C5,21.032,9.77,16,15.632,16h68.983C90.438,16,95,20.935,95,26.758v37.087C95,69.709,90.342,74,84.615,74z"/>
<path d="M32,79.056C32,81.786,29.786,84,27.055,84h-0.11C24.214,84,22,81.786,22,79.056V66.944C22,64.214,24.214,62,26.945,62h0.11
	C29.786,62,32,64.214,32,66.944V79.056z"/>
<path d="M47,78.056C47,80.786,44.786,83,42.055,83h-0.109C39.214,83,37,80.786,37,78.056V48.944C37,46.214,39.214,44,41.945,44
	h0.109C44.786,44,47,46.214,47,48.944V78.056z"/>
<path d="M63,78.056C63,80.786,60.786,83,58.055,83h-0.109C55.214,83,53,80.786,53,78.056V55.944C53,53.214,55.214,51,57.945,51
	h0.109C60.786,51,63,53.214,63,55.944V78.056z"/>
<path d="M78,79.056C78,81.786,75.786,84,73.056,84h-0.111C70.214,84,68,81.786,68,79.056V36.944C68,34.214,70.214,32,72.944,32
	h0.111C75.786,32,78,34.214,78,36.944V79.056z"/>
</svg>
