<svg xmlns="http://www.w3.org/2000/svg" xmlns:xlink="http://www.w3.org/1999/xlink" version="1.1" x="0px" y="0px" viewBox="0 0 64 64" style="enable-background:new 0 0 64 64;" xml:space="preserve"><g><path d="M17,56v-8h-2v8c0,1.654,1.346,3,3,3v-2C17.448,57,17,56.551,17,56z"></path><path d="M56,28h-1.136c-0.123-0.451-0.326-0.839-0.63-1.141c-0.891-0.883-2.259-0.872-3.713-0.862L50,26l-0.521-0.003   c-1.452-0.007-2.822-0.021-3.713,0.862c-0.304,0.302-0.507,0.69-0.63,1.141h-0.187c-0.293-3.819-2.24-7.173-5.128-9.359   c3.637-3.402,7.77-6.175,12.317-8.242l1.136-0.517C54.93,9.13,56,7.469,56,5.65C56,3.086,53.914,1,51.351,1   C45.83,1,40.786,4.026,38.188,8.897l-3.902,7.317C33.542,16.081,32.781,16,32,16s-1.542,0.081-2.285,0.214l-3.903-7.317   C23.214,4.026,18.17,1,12.649,1C10.086,1,8,3.086,8,5.65c0,1.819,1.07,3.48,2.726,4.233l1.136,0.516   c4.547,2.067,8.68,4.84,12.317,8.242c-2.888,2.186-4.835,5.54-5.128,9.359h-0.187c-0.123-0.451-0.326-0.839-0.63-1.141   c-0.891-0.883-2.259-0.872-3.713-0.862L14,26l-0.521-0.003c-1.452-0.007-2.822-0.021-3.713,0.862   c-0.304,0.302-0.507,0.69-0.63,1.141H8c-1.103,0-2,0.897-2,2v6c0,1.103,0.897,2,2,2h3v20c0,2.757,2.243,5,5,5h32   c2.757,0,5-2.243,5-5V38h3c1.103,0,2-0.897,2-2v-6C58,28.897,57.103,28,56,28z M47.176,28.278c0.252-0.25,1.042-0.283,1.842-0.283   c0.149,0,0.3,0.001,0.446,0.002L50,28l0.536-0.003c0.935-0.007,1.989-0.016,2.288,0.281C52.97,28.422,53,28.75,53,29   c0,1.654-1.346,3-3,3s-3-1.346-3-3C47,28.75,47.03,28.422,47.176,28.278z M39.952,9.838C42.203,5.62,46.57,3,51.351,3   C52.812,3,54,4.189,54,5.65c0,1.037-0.609,1.983-1.554,2.412l-1.136,0.517c-4.897,2.225-9.333,5.239-13.215,8.947   c-0.581-0.31-1.192-0.568-1.822-0.788L39.952,9.838z M12.689,8.578l-1.136-0.516C10.609,7.633,10,6.687,10,5.65   C10,4.189,11.188,3,12.649,3c4.78,0,9.147,2.62,11.397,6.838l3.679,6.898c-0.629,0.22-1.24,0.478-1.821,0.788   C22.022,13.817,17.586,10.804,12.689,8.578z M32,18c5.728,0,10.442,4.402,10.949,10H38v-2h-2v2h-8v-2h-2v2h-4.949   C21.558,22.402,26.272,18,32,18z M11.176,28.278c0.252-0.25,1.042-0.283,1.842-0.283c0.149,0,0.3,0.001,0.446,0.002L14,28   l0.536-0.003c0.936-0.007,1.989-0.016,2.288,0.281C16.97,28.422,17,28.75,17,29c0,1.654-1.346,3-3,3s-3-1.346-3-3   C11,28.75,11.03,28.422,11.176,28.278z M48,61H16c-1.654,0-3-1.346-3-3V44h38v14C51,59.654,49.654,61,48,61z M51,42H13v-4h38V42z    M56,36H8v-6h1.101c0.465,2.279,2.484,4,4.899,4s4.434-1.721,4.899-4h26.202c0.465,2.279,2.484,4,4.899,4s4.434-1.721,4.899-4H56   V36z"></path><rect x="20" y="57" width="2" height="2"></rect></g></svg>