<svg xmlns="http://www.w3.org/2000/svg" xmlns:xlink="http://www.w3.org/1999/xlink" version="1.1" x="0px" y="0px" viewBox="0 0 100 100" enable-background="new 0 0 100 100" xml:space="preserve"><path d="M50,5.3C50,5.3,30,23,9.9,23c0,17.3,0.1,34.2,7.5,47.3C25,83.7,39.8,93,50,95.3c10.1-2.6,24.3-12.1,31.8-25.2  c7.5-13.1,8.3-29.8,8.3-47.2C70,23,50,5.3,50,5.3z M70.8,42.1L49.2,71.4c-0.7,0.9-1.8,1.5-2.9,1.6c-0.1,0-0.2,0-0.3,0  c-1.1,0-2.1-0.4-2.9-1.2L31,59.5c-1.5-1.6-1.5-4.1,0-5.7c1.6-1.5,4.1-1.5,5.7,0l8.9,9l18.8-25.5c1.3-1.8,3.8-2.2,5.6-0.8  C71.7,37.8,72.1,40.3,70.8,42.1z"></path></svg>