<svg xmlns:dc="http://purl.org/dc/elements/1.1/" xmlns:cc="http://creativecommons.org/ns#" xmlns:rdf="http://www.w3.org/1999/02/22-rdf-syntax-ns#" xmlns:svg="http://www.w3.org/2000/svg" xmlns="http://www.w3.org/2000/svg" xmlns:sodipodi="http://sodipodi.sourceforge.net/DTD/sodipodi-0.dtd" xmlns:inkscape="http://www.inkscape.org/namespaces/inkscape" version="1.1" x="0px" y="0px" viewBox="0 0 100 100"><g transform="translate(0,-952.36218)"><path style="font-size:medium;font-style:normal;font-variant:normal;font-weight:normal;font-stretch:normal;text-indent:0;text-align:start;text-decoration:none;line-height:normal;letter-spacing:normal;word-spacing:normal;text-transform:none;direction:ltr;block-progression:tb;writing-mode:lr-tb;text-anchor:start;baseline-shift:baseline;opacity:1;color:#000000;fill:#000000;fill-opacity:1;stroke:none;stroke-width:6;marker:none;visibility:visible;display:inline;overflow:visible;enable-background:accumulate;font-family:Sans;-inkscape-font-specification:Sans" d="M 77.75 11 A 3.0003 3.0003 0 0 0 75.40625 12.5 L 48.40625 59.1875 A 3.0003 3.0003 0 0 0 48 60.90625 L 49.34375 78.21875 A 3.0003 3.0003 0 0 0 53.625 80.6875 L 69.28125 73.21875 A 3.0003 3.0003 0 0 0 70.59375 72 L 97.59375 25.28125 A 3.0003 3.0003 0 0 0 96.5 21.1875 L 79.5 11.375 A 3.0003 3.0003 0 0 0 77.75 11 z M 79.09375 18.09375 L 90.90625 24.90625 L 88.3125 29.375 L 76.53125 22.53125 L 79.09375 18.09375 z M 73.5 27.75 L 76.84375 29.6875 L 59.03125 60.59375 L 55.65625 58.625 L 73.5 27.75 z M 82.03125 32.65625 L 85.3125 34.5625 L 67.4375 65.4375 L 64.21875 63.59375 L 82.03125 32.65625 z M 54.34375 64.8125 L 62.78125 69.6875 L 55 73.40625 L 54.34375 64.8125 z M 4.84375 64.96875 A 3.0003 3.0003 0 0 0 3.96875 70.8125 C 5.2159855 71.264 4.8793585 71.1067 4.9375 71.625 C 4.995641 72.1433 4.7326451 73.5534 4.28125 75.1875 C 3.8298549 76.8216 3.1839722 78.6968 3.46875 81 C 3.7535278 83.3032 5.7005294 85.76675 8.46875 86.71875 C 12.704367 88.17505 16.708764 86.54005 20.28125 85.34375 C 23.296229 84.33405 25.825651 83.77795 27.5625 83.84375 C 27.51346 84.36825 27.398364 84.8685 27.6875 85.8125 C 28.072924 87.0709 29.578222 88.46315 31 88.78125 C 33.543423 89.35035 35.909539 88.7572 38.21875 88.0625 C 40.527961 87.3674 42.717429 86.4225 44.28125 85.6875 A 3.0003 3.0003 0 1 0 41.71875 80.28125 C 40.345655 80.92665 38.376151 81.7477 36.5 82.3125 C 35.140823 82.7216 34.274777 82.74485 33.46875 82.78125 C 33.50354 82.29825 33.589672 81.9253 33.375 81.125 C 33.047033 79.9024 31.67507 78.3994 30.25 78 C 25.948678 76.7944 21.925254 78.46735 18.375 79.65625 C 14.824746 80.84525 11.786027 81.50575 10.40625 81.03125 C 9.1209171 80.58935 9.4975217 80.7354 9.4375 80.25 C 9.377478 79.7646 9.6127578 78.40945 10.0625 76.78125 C 10.512242 75.15315 11.163852 73.26525 10.90625 70.96875 C 10.648648 68.67215 8.7794553 66.15125 6.03125 65.15625 A 3.0003 3.0003 0 0 0 4.84375 64.96875 z " transform="translate(0,952.36218)"></path></g></svg>