<svg xmlns="http://www.w3.org/2000/svg" xmlns:xlink="http://www.w3.org/1999/xlink" version="1.1" x="0px" y="0px" viewBox="0 0 84.406 84.875" enable-background="new 0 0 84.406 84.875" xml:space="preserve"><path d="M7.718,45.36c2.566-2.231,6.271-2.17,8.277,0.136l7.669,8.817V16.037c0-2.661,2.157-4.819,4.818-4.819  c2.662,0,4.819,2.158,4.819,4.819V40.46c0.391-0.047,0.786-0.076,1.188-0.076h0.176V10.037c0-2.661,2.157-4.819,4.818-4.819  c2.662,0,4.819,2.158,4.819,4.819v30.348h1.363V12.037c0-2.661,2.157-4.819,4.818-4.819c2.662,0,4.819,2.158,4.819,4.819v28.348  h0.177c0.401,0,0.796,0.028,1.187,0.076V23.037c0-2.661,2.157-4.819,4.818-4.819c2.662,0,4.819,2.158,4.819,4.819v44.619  c0,6.627-4.847,12-10.824,12H34.49c-2.057,0-3.648,0.008-5.649-1.327c-1.08-0.721-1.752-1.251-2.78-2.499L6.704,53.578  C4.698,51.271,5.152,47.592,7.718,45.36z"></path></svg>