<svg xmlns="http://www.w3.org/2000/svg" xmlns:xlink="http://www.w3.org/1999/xlink" version="1.1" x="0px" y="0px" viewBox="0 0 120 120" style="enable-background:new 0 0 120 120;" xml:space="preserve"><path d="M99.1,39.2L71,10.9c-1.2-1.2-3.1-1.2-4.4,0L38.5,39c-1.2,1.2-1.2,3.1,0,4.4l4.4,4.4c1.2,1.2,3.1,1.2,4.4,0l11.7-11.7  c1.2-1.2,3.7-0.4,3.7,1.5v56.8c0,3.3-3.3,3.1-3.3,3.1H22.1c-1.5,0-3.1,1.5-3.1,3.1v6.2c0,1.7,1.7,3.1,3.1,3.1h49.7  c1.7,0,3.3-1.7,3.3-3.1V37.8c0-1.9,2.1-2.7,3.5-1.5L90.3,48c1.2,1.2,3.1,1.2,4.4,0l4.4-4.4C100.3,42.3,100.3,40.5,99.1,39.2z"></path></svg>