<?xml version="1.0" encoding="utf-8"?>
<!-- Generator: Adobe Illustrator 16.0.0, SVG Export Plug-In . SVG Version: 6.00 Build 0)  -->
<!DOCTYPE svg PUBLIC "-//W3C//DTD SVG 1.1//EN" "http://www.w3.org/Graphics/SVG/1.1/DTD/svg11.dtd">
<svg version="1.1" xmlns="http://www.w3.org/2000/svg" xmlns:xlink="http://www.w3.org/1999/xlink" x="0px" y="0px"
	 viewBox="0 0 100 100" style="enable-background:new 0 0 100 100;" xml:space="preserve">
<path d="M95.027,14.581c0-0.466-0.157-0.66-0.576-0.827c-7.152-2.848-14.299-5.71-21.441-8.582
	c-0.354-0.142-0.566-0.128-0.854,0.159c-10.443,10.473-20.899,20.933-31.35,31.397c-1.317,1.319-2.624,2.649-3.975,4.013
	c-0.311-0.234-0.551-0.409-0.786-0.592c-7.213-5.615-14.427-11.229-21.633-16.852c-0.287-0.224-0.5-0.27-0.836-0.099
	c-2.701,1.37-5.409,2.725-8.124,4.066c-0.311,0.154-0.424,0.325-0.423,0.675c0.009,14.708,0.01,29.417-0.001,44.124
	c0,0.34,0.117,0.494,0.404,0.637c2.651,1.316,5.302,2.635,7.935,3.988c0.489,0.252,0.797,0.207,1.226-0.127
	c7.254-5.672,14.524-11.32,21.781-16.986c0.337-0.264,0.516-0.244,0.812,0.055c5.145,5.172,10.3,10.333,15.457,15.493
	c6.523,6.526,13.053,13.049,19.568,19.581c0.243,0.242,0.423,0.259,0.729,0.137c7.158-2.877,14.318-5.746,21.485-8.598
	c0.437-0.174,0.604-0.366,0.604-0.854C95.016,61.786,95.016,38.184,95.027,14.581z M14,64c0,0,0-18.456,0-27.228
	c4,4.408,8.868,9.198,13.287,13.617 M73,68.506c-8-6.189-15.842-12.326-23.789-18.512C57.15,43.815,65,37.676,73,31.48
	C73,43.85,73,56.116,73,68.506z"/>
</svg>
